<svg xmlns="http://www.w3.org/2000/svg" viewBox="0 0 429.23 75.85"><defs><style>.cls-1{fill:#fff;}.cls-2{fill:#e9c335;}.cls-3{fill:#b33c85;}</style></defs><g id="Layer_2" data-name="Layer 2"><g id="Layer_1-2" data-name="Layer 1"><polygon class="cls-1" points="127 19.65 127 1.13 77.63 1.13 77.63 75.2 127 75.2 127 56.68 101.24 56.68 101.24 48.45 127 48.45 127 27.88 101.24 27.88 101.24 19.65 127 19.65"/><polygon class="cls-1" points="259.63 19.65 259.63 1.13 210.25 1.13 210.25 75.2 259.63 75.2 259.63 56.68 233.87 56.68 233.87 48.45 259.63 48.45 259.63 27.88 233.87 27.88 233.87 19.65 259.63 19.65"/><rect class="cls-2" y="56.56" width="18.52" height="18.52"/><polygon class="cls-1" points="0 1.13 0 50.82 18.52 50.82 18.52 21.71 26.75 21.71 26.75 75.2 45.26 75.2 45.26 21.71 53.49 21.71 53.49 75.2 72.01 75.2 72.01 1.13 0 1.13"/><polygon class="cls-1" points="132.63 1.13 132.63 75.2 151.14 75.2 151.14 21.71 159.37 21.71 159.37 75.2 177.89 75.2 177.89 21.71 186.12 21.71 186.12 75.2 204.63 75.2 204.63 1.13 132.63 1.13"/><path class="cls-3" d="M298.37,7.06q8.88,7.07,10.51,19.17H285.11a9,9,0,0,0-3.76-3.42,13.12,13.12,0,0,0-5.9-1.21Q269,21.6,265.39,26t-3.55,12q0,8.74,4,13.06T278,55.31a14.88,14.88,0,0,0,12.6-6.53h-18V32.24h36.68V55.63A44.33,44.33,0,0,1,296.38,69.9q-8.22,6-20.83,5.95a38.09,38.09,0,0,1-19.45-4.79,32,32,0,0,1-12.7-13.43A42.61,42.61,0,0,1,239,37.93a42.58,42.58,0,0,1,4.42-19.7A32.12,32.12,0,0,1,256.05,4.79,37.7,37.7,0,0,1,275.35,0Q289.48,0,298.37,7.06Z"/><path class="cls-3" d="M337.47,19.28v9.27h22.35V46.14H337.47V56.68h25.4V75.33h-48V.74h48V19.28Z"/><path class="cls-3" d="M404.44,75.33,390.83,48.57V75.33H368.27V.74H401.8A32.19,32.19,0,0,1,416.74,4,21.83,21.83,0,0,1,426,12.7a25,25,0,0,1,3.1,12.48,22.76,22.76,0,0,1-4,13.27,22.1,22.1,0,0,1-11.53,8.33l15.64,28.55ZM390.83,33h8.94a6.87,6.87,0,0,0,4.87-1.53q1.64-1.53,1.63-4.8A6.27,6.27,0,0,0,404.59,22a6.5,6.5,0,0,0-4.82-1.69h-8.94Z"/></g></g></svg>