<svg xmlns="http://www.w3.org/2000/svg" viewBox="0 0 431.91 75.85"><defs><style>.cls-1{fill:#fff;}.cls-2{fill:#b33c85;}</style></defs><g id="Layer_2" data-name="Layer 2"><g id="Layer_1-2" data-name="Layer 1"><polygon class="cls-1" points="127 19.9 127 1.38 77.63 1.38 77.63 75.45 127 75.45 127 56.93 101.24 56.93 101.24 48.7 127 48.7 127 28.13 101.24 28.13 101.24 19.9 127 19.9"/><polygon class="cls-1" points="260.73 19.9 260.73 1.38 211.36 1.38 211.36 75.45 260.73 75.45 260.73 56.93 234.97 56.93 234.97 48.7 260.73 48.7 260.73 28.13 234.97 28.13 234.97 19.9 260.73 19.9"/><rect class="cls-2" y="58.14" width="18.52" height="17.19"/><polygon class="cls-1" points="0 1.38 0 51.28 18.52 51.28 18.52 21.96 26.75 21.96 26.75 75.45 45.26 75.45 45.26 21.96 53.49 21.96 53.49 75.45 72.01 75.45 72.01 1.38 0 1.38"/><polygon class="cls-1" points="133.18 1.38 133.18 75.45 151.69 75.45 151.69 21.96 159.92 21.96 159.92 75.45 178.44 75.45 178.44 21.96 186.67 21.96 186.67 75.45 205.19 75.45 205.19 1.38 133.18 1.38"/><path class="cls-2" d="M299.47,7.06q8.89,7.07,10.52,19.17H286.21a8.86,8.86,0,0,0-3.76-3.42,13.11,13.11,0,0,0-5.89-1.21q-6.51,0-10.06,4.37t-3.56,12q0,8.74,4,13.06t12.2,4.32a14.91,14.91,0,0,0,12.6-6.53h-18V32.24h36.68V55.63a44.29,44.29,0,0,1-12.9,14.27q-8.24,6-20.83,5.95a38.12,38.12,0,0,1-19.46-4.79,32,32,0,0,1-12.7-13.43,42.61,42.61,0,0,1-4.42-19.7,42.58,42.58,0,0,1,4.42-19.7A32.18,32.18,0,0,1,257.15,4.79,37.74,37.74,0,0,1,276.46,0Q290.58,0,299.47,7.06Z"/><path class="cls-2" d="M339,19.28v9.27H361.4V46.14H339V56.68h25.41V75.33h-48V.74h48V19.28Z"/><path class="cls-2" d="M407.12,75.33,393.51,48.57V75.33H371V.74h33.53A32.11,32.11,0,0,1,419.41,4a21.8,21.8,0,0,1,9.3,8.75,25,25,0,0,1,3.1,12.48,22.76,22.76,0,0,1-4,13.27,22.1,22.1,0,0,1-11.53,8.33l15.64,28.55ZM393.51,33h8.94a6.87,6.87,0,0,0,4.87-1.53q1.64-1.53,1.63-4.8A6.27,6.27,0,0,0,407.27,22a6.5,6.5,0,0,0-4.82-1.69h-8.94Z"/></g></g></svg>